<svg xmlns="http://www.w3.org/2000/svg" width="24.05" height="17" viewBox="0 0 10 7.065"><defs><style>.a{fill:#9B9B9B;}</style></defs><path class="a" d="M51.782,45.8h-.393v-.023a1.031,1.031,0,0,0-1.134-1.123H43.279a.75.75,0,0,0-.607.247.856.856,0,0,0-.168.707l.427,5.189a.925.925,0,0,0,.921.921h7.536a.7.7,0,0,0,.708-.707l.393-4.482A.71.71,0,0,0,51.782,45.8Zm-7.582.809s-.528-.023-.517.415l.146,3.527s0,.281-.225.3c-.2.022-.247-.191-.259-.27v-.033h0l-.4-4.987V45.55a.539.539,0,0,1,.067-.371.368.368,0,0,1,.292-.1h6.975c.495,0,.7.2.708.708H47.839a.515.515,0,0,0-.4.247c-.179.292-.348.573-.348.573Zm5.2,4.257a1.988,1.988,0,1,1,1.988-1.989A1.992,1.992,0,0,1,49.4,50.863Zm.438-1.629a1,1,0,0,0,.191-1.258h0a.995.995,0,0,0-1.82.281.977.977,0,0,0,.113.752,1.01,1.01,0,0,0,.617.449.849.849,0,0,0,.236.034.883.883,0,0,0,.371-.079l.539.775a.191.191,0,0,0,.135.079.127.127,0,0,0,.09-.034A.166.166,0,0,0,50.355,50Zm-.315-.179a.636.636,0,0,1-.494.079.674.674,0,0,1-.4-.292.638.638,0,0,1-.078-.495.672.672,0,0,1,.292-.4.608.608,0,0,1,.337-.09.654.654,0,0,1,.562.315h0A.646.646,0,0,1,49.524,49.054Z" transform="translate(-42.49 -44.651)"/></svg>