<svg xmlns="http://www.w3.org/2000/svg" width="20" height="17.05" viewBox="0 0 20 17.05"><g transform="translate(-15 -476)"><path d="M19.06,4.05H18.8V1.02A.984.984,0,0,0,17.86,0H1.9A.984.984,0,0,0,.96,1.02V5.34H.94A.975.975,0,0,0,0,6.35V6.4l.96,9.66a.976.976,0,0,0,.94.99H17.86a.992.992,0,0,0,.95-.99L20,5.12V5.07A.978.978,0,0,0,19.06,4.05ZM1.89,1.02c0-.06.02-.09.01-.09H17.84c.01,0,.03.03.03.09V4.05h-.68V2.06a.469.469,0,0,0-.47-.47H5.23a.469.469,0,0,0-.47.47v.78H3.15a.469.469,0,0,0-.47.47V5.34H1.89Zm9.07,3.03a.453.453,0,0,0-.41.25L9.99,5.34H3.61V3.77H14.18v.27H10.96Zm3.68-1.21H5.7V2.52H16.26V4.04H15.11V3.31A.469.469,0,0,0,14.64,2.84Zm3.23,13.15v.05a.13.13,0,0,1-.03.09H1.92c-.01,0-.03-.03-.03-.09v-.05L.93,6.34c0-.05.02-.07.01-.07h9.33a.453.453,0,0,0,.41-.25l.56-1.04h7.79c.01,0,.03.03.03.07Z" transform="translate(15 476)" fill="#fff"/><path d="M15.76,9.58H11.12a.47.47,0,1,0,0,.94h4.64a.47.47,0,0,0,0-.94Z" transform="translate(15 476)" fill="#fff"/><path d="M11.14,11.49h-.02a.461.461,0,0,0-.46.47.478.478,0,0,0,.48.47.469.469,0,0,0,.47-.47A.483.483,0,0,0,11.14,11.49Z" transform="translate(15 476)" fill="#fff"/><path d="M12.67,11.49h-.03a.47.47,0,0,0,0,.94h.03a.469.469,0,0,0,.47-.47A.483.483,0,0,0,12.67,11.49Z" transform="translate(15 476)" fill="#fff"/><path d="M14.18,11.49h-.02a.461.461,0,0,0-.46.47.478.478,0,0,0,.48.47.47.47,0,0,0,0-.94Z" transform="translate(15 476)" fill="#fff"/><g transform="translate(15 476)"><path d="M7.91,9.39a1.6,1.6,0,1,0-1.6,1.6A1.6,1.6,0,0,0,7.91,9.39Zm-2.93,0a1.33,1.33,0,1,1,1.33,1.33A1.336,1.336,0,0,1,4.98,9.39Z" fill="#fff"/><path d="M6.31,11.12A1.72,1.72,0,1,1,8.03,9.4,1.72,1.72,0,0,1,6.31,11.12Zm0-3.2A1.47,1.47,0,1,0,7.78,9.39,1.472,1.472,0,0,0,6.31,7.92Zm0,2.93A1.46,1.46,0,1,1,7.77,9.39,1.462,1.462,0,0,1,6.31,10.85Zm0-2.66A1.21,1.21,0,1,0,7.52,9.4,1.208,1.208,0,0,0,6.31,8.19Z" fill="#fff"/><path d="M6.31,11.12A1.72,1.72,0,1,1,8.03,9.4,1.72,1.72,0,0,1,6.31,11.12Zm0-3.2A1.47,1.47,0,1,0,7.78,9.39,1.472,1.472,0,0,0,6.31,7.92Zm0,2.93A1.46,1.46,0,1,1,7.77,9.39,1.462,1.462,0,0,1,6.31,10.85Zm0-2.66A1.21,1.21,0,1,0,7.52,9.4,1.208,1.208,0,0,0,6.31,8.19Z" fill="#fff"/><path d="M6.31,11.24A1.85,1.85,0,1,1,8.16,9.39,1.852,1.852,0,0,1,6.31,11.24ZM4.71,9.39a1.6,1.6,0,1,0,3.2,0,1.6,1.6,0,1,1-3.2,0Zm.27,0a1.33,1.33,0,0,0,2.66,0,1.33,1.33,0,0,1-2.66,0ZM6.31,8.31A1.08,1.08,0,1,0,7.39,9.39,1.082,1.082,0,0,0,6.31,8.31Z" fill="#fff"/><path d="M8.89,14.57v-.13a2.581,2.581,0,1,0-5.16,0v.13H4v-.13a2.312,2.312,0,1,1,4.62,0v.13h.27Z" fill="#fff"/><path d="M9.01,14.69H8.5v-.26a2.182,2.182,0,1,0-4.36,0v.26H3.61v-.26a2.7,2.7,0,1,1,5.4,0Zm-.26-.25.02-.01a2.452,2.452,0,1,0-4.9,0v.01l.02-.01a2.432,2.432,0,1,1,4.86.01Z" fill="#fff"/><path d="M9.01,14.69H8.5v-.26a2.182,2.182,0,1,0-4.36,0v.26H3.61v-.26a2.7,2.7,0,1,1,5.4,0Zm-.26-.25.02-.01a2.452,2.452,0,1,0-4.9,0v.01l.02-.01a2.432,2.432,0,1,1,4.86.01Z" fill="#fff"/><path d="M9.14,14.82H8.37v-.38a2.062,2.062,0,1,0-4.12,0v.38H3.49v-.38a2.831,2.831,0,1,1,5.66,0v.38Zm-.37-.25h.11v-.05Zm-.15,0h.01l-.01-.12Zm-4.73,0H4v-.13a2.312,2.312,0,1,1,4.62,0A2.312,2.312,0,1,0,4,14.43v.08Zm-.15,0h.01l-.01-.12Zm2.53-2.8a2.59,2.59,0,0,0-2.54,2.66v.01A2.606,2.606,0,0,1,6.27,11.77Z" fill="#fff"/></g></g></svg>